<?xml version="1.0" encoding="UTF-8"?>
<svg width="512" height="512" viewBox="0 0 512 512" fill="none" xmlns="http://www.w3.org/2000/svg">
  <path d="M256 48C141.31 48 48 141.31 48 256C48 370.69 141.31 464 256 464C370.69 464 464 370.69 464 256C464 141.31 370.69 48 256 48Z" fill="#1A1A1A" opacity="0.1"/>
  <path d="M176 128C167.2 128 160 135.2 160 144V208C160 216.8 167.2 224 176 224H240V192H192V160H240V128H176Z" fill="#800020"/>
  <path d="M288 160H336V192H288V160Z" fill="#800020"/>
  <path d="M320 128H272V224H336V144C336 135.2 328.8 128 320 128Z" fill="#800020"/>
  <path d="M136 320V352H216V384H136V416H264V320H136Z" fill="#800020"/>
  <path d="M320 320H376C384.8 320 392 327.2 392 336V400C392 408.8 384.8 416 376 416H320V320Z" fill="#800020"/>
  <path d="M320 352V384H368V352H320Z" fill="#800020"/>
</svg> 