<?xml version="1.0" encoding="UTF-8"?>
<svg width="512" height="512" viewBox="0 0 512 512" fill="none" xmlns="http://www.w3.org/2000/svg">
  <!-- Портфель -->
  <g filter="url(#shadow)">
    <path d="M384 160H128V96c0-17.7 14.3-32 32-32h192c17.7 0 32 14.3 32 32v64z" fill="#8B0000" />
    <path d="M416 160H96c-17.7 0-32 14.3-32 32v192c0 17.7 14.3 32 32 32h320c17.7 0 32-14.3 32-32V192c0-17.7-14.3-32-32-32z" fill="#A52A2A" />
    <rect x="64" y="200" width="384" height="20" rx="10" fill="#7A0000" />
    
    <!-- Замок -->
    <rect x="236" y="160" width="40" height="50" rx="8" fill="#D9A066" />
    <rect x="248" y="180" width="16" height="20" rx="4" fill="#6B0000" />
    
    <!-- Ручка -->
    <rect x="220" y="120" width="72" height="16" rx="8" fill="#7A0000" />
  </g>
  
  <!-- Документы, выходящие из портфеля -->
  <g>
    <rect x="140" y="250" width="100" height="120" rx="8" transform="rotate(-15 140 250)" fill="#F0F0F0" />
    <rect x="160" y="280" width="60" height="8" rx="4" transform="rotate(-15 160 280)" fill="#CCCCCC" />
    <rect x="155" y="300" width="70" height="8" rx="4" transform="rotate(-15 155 300)" fill="#CCCCCC" />
    <rect x="150" y="320" width="65" height="8" rx="4" transform="rotate(-15 150 320)" fill="#CCCCCC" />
    
    <rect x="270" y="230" width="100" height="120" rx="8" transform="rotate(10 270 230)" fill="#F0F0F0" />
    <rect x="290" y="260" width="60" height="8" rx="4" transform="rotate(10 290 260)" fill="#CCCCCC" />
    <rect x="285" y="280" width="70" height="8" rx="4" transform="rotate(10 285 280)" fill="#CCCCCC" />
    <rect x="280" y="300" width="65" height="8" rx="4" transform="rotate(10 280 300)" fill="#CCCCCC" />
    
    <!-- Изображение в документе -->
    <rect x="290" y="320" width="60" height="40" rx="4" transform="rotate(10 290 320)" fill="#8B0000" opacity="0.7" />
  </g>
  
  <!-- Плюс (добавление) -->
  <g filter="url(#shadow-plus)">
    <circle cx="400" cy="400" r="40" fill="#8B0000" />
    <path d="M400 380V420" stroke="white" stroke-width="8" stroke-linecap="round" />
    <path d="M380 400H420" stroke="white" stroke-width="8" stroke-linecap="round" />
  </g>
  
  <!-- Звездочки -->
  <path d="M120 120L118 112L114 120L106 118L110 126L102 130L110 134L106 142L114 140L118 148L120 140L128 142L124 134L132 130L124 126L128 118L120 120Z" fill="#FFC107" />
  <path d="M430 200L428 192L424 200L416 198L420 206L412 210L420 214L416 222L424 220L428 228L430 220L438 222L434 214L442 210L434 206L438 198L430 200Z" fill="#FFC107" />
  
  <!-- Фильтры и эффекты -->
  <defs>
    <filter id="shadow" x="44" y="54" width="424" height="372" filterUnits="userSpaceOnUse" color-interpolation-filters="sRGB">
      <feFlood flood-opacity="0" result="BackgroundImageFix"/>
      <feColorMatrix in="SourceAlpha" type="matrix" values="0 0 0 0 0 0 0 0 0 0 0 0 0 0 0 0 0 0 127 0"/>
      <feOffset dy="10"/>
      <feGaussianBlur stdDeviation="10"/>
      <feColorMatrix type="matrix" values="0 0 0 0 0 0 0 0 0 0 0 0 0 0 0 0 0 0 0.25 0"/>
      <feBlend mode="normal" in2="BackgroundImageFix" result="effect1_dropShadow"/>
      <feBlend mode="normal" in="SourceGraphic" in2="effect1_dropShadow" result="shape"/>
    </filter>
    <filter id="shadow-plus" x="350" y="350" width="100" height="100" filterUnits="userSpaceOnUse" color-interpolation-filters="sRGB">
      <feFlood flood-opacity="0" result="BackgroundImageFix"/>
      <feColorMatrix in="SourceAlpha" type="matrix" values="0 0 0 0 0 0 0 0 0 0 0 0 0 0 0 0 0 0 127 0"/>
      <feOffset dy="4"/>
      <feGaussianBlur stdDeviation="5"/>
      <feColorMatrix type="matrix" values="0 0 0 0 0 0 0 0 0 0 0 0 0 0 0 0 0 0 0.3 0"/>
      <feBlend mode="normal" in2="BackgroundImageFix" result="effect1_dropShadow"/>
      <feBlend mode="normal" in="SourceGraphic" in2="effect1_dropShadow" result="shape"/>
    </filter>
  </defs>
</svg> 