<?xml version="1.0" encoding="UTF-8"?>
<svg width="512" height="512" viewBox="0 0 512 512" fill="none" xmlns="http://www.w3.org/2000/svg">
  <path d="M256 48C141.31 48 48 141.31 48 256C48 370.69 141.31 464 256 464C370.69 464 464 370.69 464 256C464 141.31 370.69 48 256 48Z" fill="#1A1A1A" opacity="0.1"/>
  <path d="M176 128C167.2 128 160 135.2 160 144V208C160 216.8 167.2 224 176 224H240V192H192V160H240V128H176Z" fill="#800020"/>
  <path d="M320 128H264V224H320V176H288V160H320V128Z" fill="#800020"/>
  <path d="M368 320H320V352H368V384H320V416H376C384.8 416 392 408.8 392 400V336C392 327.2 384.8 320 376 320H368Z" fill="#800020"/>
  <path d="M320 352V384H352V352H320Z" fill="#800020"/>
  <path d="M120 320V416H184V384H152V320H120Z" fill="#800020"/>
  <path d="M240 320H184V416H240V320Z" fill="#800020"/>
  <path d="M184 352V384H224V352H184Z" fill="#800020"/>
</svg> 